<svg xmlns="http://www.w3.org/2000/svg" width="272" height="53" viewBox="0 0 272 53">
  <g fill="none">
    <path fill="#71C5E8" d="M49.9,0.4 C49.2,0.4 48.5,0.7 48,1.2 L30,19.1 C28.9,20.2 28.9,21.9 30,22.9 C31.1,24 32.8,24 33.8,22.9 L51.8,5 C52.9,3.9 52.9,2.2 51.8,1.2 C51.3,0.6 50.6,0.4 49.9,0.4 Z"/>
    <path fill="#542682" d="M3.2,0.4 C2.9,0.4 2.5,0.5 2.2,0.6 C1.1,1 0.5,2 0.5,3.1 L0.5,49.8 C0.5,50.9 1.2,51.9 2.2,52.3 C3.2,52.7 4.4,52.5 5.1,51.7 L23.1,33.7 C24.2,32.6 24.2,30.9 23.1,29.9 C22,28.8 20.3,28.8 19.3,29.9 L5.9,43.3 L5.9,9.6 L48,51.7 C49.1,52.8 50.8,52.8 51.8,51.7 C52.9,50.6 52.9,48.9 51.8,47.9 L5.1,1.2 C4.6,0.6 3.9,0.4 3.2,0.4 Z"/>
    <g fill="#542682" transform="translate(74 9)">
      <path d="M37.6 31.3C36.7 31.3 36.1 30.6 36.1 29.7L36.1 2C36.1 1.1 36.8.4 37.6.4 38.5.4 39.2 1.1 39.2 2L39.2 29.8C39.2 30.6 38.5 31.3 37.6 31.3zM122.4 31.3C121.5 31.3 120.9 30.6 120.9 29.7L120.9 2C120.9 1.1 121.6.4 122.4.4 123.3.4 124 1.1 124 2L124 29.8C124 30.6 123.3 31.3 122.4 31.3zM83.8 31.3C82.9 31.3 82.2 30.6 82.2 29.7L82.2 2C82.2 1.1 82.9.4 83.8.4 84.7.4 85.4 1.1 85.4 2L85.4 29.8C85.4 30.6 84.7 31.3 83.8 31.3zM108.5 31.3C107.6 31.3 106.9 30.6 106.9 29.7L106.9 2C106.9 1.1 107.6.4 108.5.4 109.4.4 110 1.1 110 2L110 29.8C110.1 30.6 109.4 31.3 108.5 31.3zM2.2 31.3C2 31.3 1.8 31.3 1.7 31.2 1.1 31 .7 30.4.7 29.7L.7 2C.7 1.1 1.4.4 2.2.4 3.1.4 3.8 1.1 3.8 2L3.8 25.5 24.1 1C24.6.3 25.6.3 26.3.8 27 1.3 27 2.3 26.5 3L3.4 30.7C3.1 31.1 2.6 31.3 2.2 31.3zM25.3 31.3C24.8 31.3 24.3 31.1 24 30.6L16.3 19.8C15.8 19.1 16 18.1 16.7 17.6 17.4 17.1 18.4 17.3 18.9 18L26.6 28.8C27.1 29.5 26.9 30.5 26.2 31 25.9 31.2 25.6 31.3 25.3 31.3zM173.3 31.3C173.1 31.3 172.9 31.3 172.8 31.2 172.2 31 171.8 30.4 171.8 29.7L171.8 2C171.8 1.1 172.5.4 173.4.4 174.3.4 174.9 1.1 174.9 2L174.9 25.5 195.2 1C195.7.3 196.7.3 197.4.8 198.1 1.3 198.1 2.3 197.6 3L174.5 30.8C174.2 31.1 173.8 31.3 173.3 31.3zM196.4 31.3C195.9 31.3 195.4 31.1 195.1 30.6L187.4 19.8C186.9 19.1 187.1 18.1 187.8 17.6 188.5 17.1 189.5 17.3 190 18L197.7 28.8C198.2 29.5 198 30.5 197.3 31 197.1 31.2 196.8 31.3 196.4 31.3zM159.4 31.3C159 31.3 158.5 31.1 158.2 30.7L137.8 6.2 137.8 29.7C137.8 30.6 137.1 31.3 136.2 31.3 135.3 31.3 134.6 30.6 134.6 29.7L134.6 1.9C134.6 1.2 135 .7 135.6.4 136.2.2 136.9.4 137.3.9L160.4 28.7C160.9 29.4 160.9 30.3 160.2 30.9 160.1 31.2 159.8 31.3 159.4 31.3zM159.4 24.3C158.5 24.3 157.9 23.6 157.9 22.7L157.9 2C157.9 1.1 158.6.4 159.4.4 160.2.4 161 1.1 161 2L161 22.7C161 23.6 160.3 24.3 159.4 24.3zM49.8 15C49.7 15 49.6 15 49.5 15 48.7 14.9 48.1 14.1 48.2 13.2 48.7 10 50.3 7 52.6 4.7 55.6 1.7 59.5.1 63.7.1 67.5.1 71.1 1.4 74 3.9 74.6 4.5 74.7 5.4 74.2 6.1 73.6 6.8 72.7 6.8 72 6.3 69.7 4.3 66.8 3.2 63.8 3.2 60.4 3.2 57.2 4.5 54.8 6.9 52.9 8.8 51.7 11.1 51.3 13.7 51.2 14.5 50.6 15 49.8 15zM63.8 31.6C59.6 31.6 55.6 30 52.7 27 50.4 24.7 48.8 21.7 48.3 18.5 48.2 17.7 48.7 16.9 49.6 16.7 50.4 16.6 51.2 17.1 51.4 18 51.8 20.6 53.1 23 54.9 24.8 57.3 27.2 60.5 28.5 63.9 28.5 66.9 28.5 69.8 27.4 72.1 25.5 72.8 24.9 73.7 25 74.3 25.7 74.9 26.4 74.8 27.3 74.1 27.9 71.2 30.3 67.6 31.6 63.8 31.6zM103.6 17.4L88.8 17.4C87.9 17.4 87.2 16.7 87.2 15.8 87.2 14.9 87.9 14.2 88.8 14.2L103.6 14.2C104.5 14.2 105.1 14.9 105.1 15.8 105.1 16.7 104.4 17.4 103.6 17.4z"/>
    </g>
  </g>
</svg>
