<svg xmlns="http://www.w3.org/2000/svg" width="22" height="22" viewBox="0 0 22 22">
  <g fill="none">
    <path fill="#71C5E8" d="M20.7132075,0.166037736 C20.4226415,0.166037736 20.1320755,0.290566038 19.9245283,0.498113208 L12.4528302,7.92830189 C11.9962264,8.38490566 11.9962264,9.09056604 12.4528302,9.50566038 C12.909434,9.96226415 13.6150943,9.96226415 14.0301887,9.50566038 L21.5018868,2.0754717 C21.9584906,1.61886792 21.9584906,0.913207547 21.5018868,0.498113208 C21.2943396,0.249056604 21.0037736,0.166037736 20.7132075,0.166037736 Z"/>
    <path fill="#542682" d="M1.32830189,0.166037736 C1.20377358,0.166037736 1.03773585,0.20754717 0.913207547,0.249056604 C0.456603774,0.41509434 0.20754717,0.830188679 0.20754717,1.28679245 L0.20754717,20.6716981 C0.20754717,21.1283019 0.498113208,21.5433962 0.913207547,21.709434 C1.32830189,21.8754717 1.82641509,21.7924528 2.11698113,21.4603774 L9.58867925,13.9886792 C10.045283,13.5320755 10.045283,12.8264151 9.58867925,12.4113208 C9.13207547,11.954717 8.42641509,11.954717 8.01132075,12.4113208 L2.4490566,17.9735849 L2.4490566,3.98490566 L19.9245283,21.4603774 C20.3811321,21.9169811 21.0867925,21.9169811 21.5018868,21.4603774 C21.9584906,21.0037736 21.9584906,20.2981132 21.5018868,19.8830189 L2.11698113,0.498113208 C1.90943396,0.249056604 1.61886792,0.166037736 1.32830189,0.166037736 Z"/>
  </g>
</svg>
